<svg xmlns="http://www.w3.org/2000/svg" xmlns:xlink="http://www.w3.org/1999/xlink">
<defs>
<symbol id="icon-50n" viewBox="0 0 32 32">
<title>50n</title>
<path d="M30.563 20.122h-3.258c0.432-1.059 0.714-2.192 0.797-3.386 0.051-0.461-0.154-0.922-0.512-1.232-0.358-0.256-0.819-0.358-1.283-0.256-0.768 0.205-1.488 0.307-2.256 0.307-1.958 0-3.757-0.675-5.194-1.795h5.091c0.768 0 1.437-0.666 1.386-1.437 0-0.768-0.614-1.437-1.437-1.437h-7.398c-0.576-1.142-0.909-2.429-0.909-3.795 0-0.256 0.051-0.461 0.051-0.717 0.051-0.461-0.154-0.922-0.512-1.232-0.358-0.256-0.819-0.358-1.283-0.256-3.194 0.912-5.763 3.146-7.158 6.006h-1.507c-0.768 0-1.437 0.614-1.437 1.437 0 0.768 0.614 1.437 1.437 1.437h0.554c-0.118 0.637-0.186 1.286-0.192 1.949h-4.106c-0.771-0.003-1.437 0.662-1.437 1.434 0 0.768 0.614 1.437 1.437 1.437h4.445c1.235 4.918 5.69 8.563 10.992 8.563 3.475 0 6.63-1.619 8.714-4.154h4.979c0.768 0 1.437-0.666 1.437-1.437s-0.618-1.437-1.44-1.437zM12.768 8.429c0.102 0.851 0.304 1.677 0.586 2.461h-3.379c0.733-1.008 1.683-1.859 2.794-2.461zM16.819 24.275c-3.696 0-6.835-2.384-7.987-5.693h6.243c0.768 0 1.437-0.666 1.437-1.437 0-0.768-0.614-1.437-1.437-1.437h-6.714c0.010-0.666 0.099-1.318 0.262-1.949h6.25c2.221 3.056 5.904 4.973 9.997 4.666-0.198 0.595-0.467 1.162-0.787 1.693h-9.005c-0.768 0-1.437 0.614-1.437 1.437 0 0.768 0.614 1.437 1.437 1.437h6.182c-1.302 0.813-2.826 1.283-4.442 1.283z"></path>
</symbol>
<symbol id="icon-50d" viewBox="0 0 32 32">
<title>50d</title>
<path d="M30.48 9.654h-5.382c-2.16-3.606-6.102-6.019-10.618-6.019-6.32 0-11.523 4.733-12.269 10.848h-0.691c-0.816-0.003-1.52 0.65-1.52 1.517 0 0.813 0.65 1.52 1.52 1.52h0.691c0.749 6.115 5.952 10.848 12.269 10.848 4.467 0 8.378-2.365 10.55-5.91h1.542c0.813 0 1.466-0.704 1.466-1.52s-0.65-1.52-1.52-1.52h-0.157c0.31-1.085 0.48-2.23 0.48-3.418 0-1.146-0.16-2.256-0.451-3.309h4.083c0.813 0 1.52-0.704 1.52-1.52s-0.643-1.517-1.514-1.517zM23.811 16c0 1.206-0.237 2.358-0.656 3.418h-9.974c-0.813 0-1.52 0.704-1.52 1.52s0.65 1.52 1.52 1.52h8.029c-1.699 1.77-4.080 2.874-6.726 2.874-4.634 0-8.467-3.382-9.194-7.811h8.544c0.813 0 1.52-0.65 1.52-1.52 0-0.813-0.65-1.52-1.52-1.52h-8.544c0.726-4.429 4.56-7.811 9.194-7.811 2.698 0 5.12 1.152 6.826 2.982h-6.176c-0.813 0-1.52 0.704-1.52 1.52s0.65 1.52 1.52 1.52h8.064c0.39 1.030 0.614 2.141 0.614 3.309z"></path>
</symbol>
<symbol id="icon-13d" viewBox="0 0 32 32">
<title>13d</title>
<path d="M32 18.525c-0.054 3.747-3.043 6.736-6.736 6.736-0.87 0-1.52-0.707-1.52-1.52 0-0.87 0.707-1.52 1.52-1.52 2.010 0 3.642-1.629 3.642-3.642 0-1.411-0.816-2.717-2.118-3.315-0.653-0.272-0.979-0.979-0.87-1.629 0.054-0.435 0.109-0.816 0.109-1.197 0-3.856-3.152-7.008-7.008-7.008-2.173 0-4.198 1.014-5.52 2.685 0.33 0.195 0.634 0.39 0.902 0.576 0.707 0.49 0.87 1.411 0.435 2.118-0.49 0.707-1.411 0.87-2.118 0.435-0.666-0.458-1.584-1.008-2.538-1.242-0.317-0.042-0.637-0.064-0.938-0.064-1.696 0-3.219 0.682-4.323 1.779-1.091 1.11-1.763 2.634-1.763 4.307-0.010 0.074-0.029 0.141-0.045 0.211 0.083 3.347 2.816 5.981 6.131 5.981 0.87 0 1.52 0.707 1.52 1.52 0 0.87-0.707 1.52-1.52 1.52-5.114 0.006-9.242-4.125-9.242-9.232s4.128-9.235 9.235-9.235c0.435 0 0.87 0.054 1.357 0.109 1.792-2.771 4.944-4.509 8.422-4.509 5.542 0 10.051 4.509 10.051 10.051v0.598c1.792 1.248 2.934 3.312 2.934 5.485zM22.33 20.81c-0.381-0.707-1.357-0.979-2.064-0.544l-1.466 0.851v-1.664c0-0.816-0.653-1.52-1.52-1.52-0.816 0-1.52 0.653-1.52 1.52v1.664l-1.466-0.851c-0.707-0.435-1.629-0.163-2.064 0.544s-0.163 1.629 0.544 2.064l1.501 0.87-1.507 0.867c-0.707 0.381-0.979 1.357-0.544 2.064 0.272 0.49 0.762 0.762 1.302 0.762 0.272 0 0.49-0.054 0.762-0.218l1.466-0.851v1.718c0 0.816 0.653 1.52 1.52 1.52 0.816 0 1.52-0.653 1.52-1.52v-1.718l1.466 0.851c0.218 0.163 0.49 0.218 0.762 0.218 0.544 0 1.034-0.272 1.302-0.762 0.435-0.707 0.163-1.629-0.544-2.064l-1.491-0.87 1.501-0.87c0.704-0.378 0.976-1.357 0.541-2.061z"></path>
</symbol>
<symbol id="icon-13n" viewBox="0 0 32 32">
<title>13n</title>
<path d="M32 18.525c-0.054 3.747-3.043 6.736-6.736 6.736-0.87 0-1.52-0.707-1.52-1.52 0-0.87 0.707-1.52 1.52-1.52 2.010 0 3.642-1.629 3.642-3.642 0-1.411-0.816-2.717-2.118-3.315-0.653-0.272-0.979-0.979-0.87-1.629 0.054-0.435 0.109-0.816 0.109-1.197 0-3.856-3.152-7.008-7.008-7.008-2.173 0-4.198 1.014-5.52 2.685 0.33 0.195 0.634 0.39 0.902 0.576 0.707 0.49 0.87 1.411 0.435 2.118-0.49 0.707-1.411 0.87-2.118 0.435-0.666-0.458-1.584-1.008-2.538-1.242-0.317-0.042-0.637-0.064-0.938-0.064-1.696 0-3.219 0.682-4.323 1.779-1.091 1.11-1.763 2.634-1.763 4.307-0.010 0.074-0.029 0.141-0.045 0.211 0.083 3.347 2.816 5.981 6.131 5.981 0.87 0 1.52 0.707 1.52 1.52 0 0.87-0.707 1.52-1.52 1.52-5.114 0.006-9.242-4.125-9.242-9.232s4.128-9.235 9.235-9.235c0.435 0 0.87 0.054 1.357 0.109 1.792-2.771 4.944-4.509 8.422-4.509 5.542 0 10.051 4.509 10.051 10.051v0.598c1.792 1.248 2.934 3.312 2.934 5.485zM22.33 20.81c-0.381-0.707-1.357-0.979-2.064-0.544l-1.466 0.851v-1.664c0-0.816-0.653-1.52-1.52-1.52-0.816 0-1.52 0.653-1.52 1.52v1.664l-1.466-0.851c-0.707-0.435-1.629-0.163-2.064 0.544s-0.163 1.629 0.544 2.064l1.501 0.87-1.507 0.867c-0.707 0.381-0.979 1.357-0.544 2.064 0.272 0.49 0.762 0.762 1.302 0.762 0.272 0 0.49-0.054 0.762-0.218l1.466-0.851v1.718c0 0.816 0.653 1.52 1.52 1.52 0.816 0 1.52-0.653 1.52-1.52v-1.718l1.466 0.851c0.218 0.163 0.49 0.218 0.762 0.218 0.544 0 1.034-0.272 1.302-0.762 0.435-0.707 0.163-1.629-0.544-2.064l-1.491-0.87 1.501-0.87c0.704-0.378 0.976-1.357 0.541-2.061z"></path>
</symbol>
<symbol id="icon-11d" viewBox="0 0 32 32">
<title>11d</title>
<path d="M32 17.411c-0.054 3.526-3.091 6.509-6.781 6.509-0.867 0-1.52-0.704-1.52-1.52 0-0.813 0.704-1.52 1.52-1.52 2.006 0 3.635-1.626 3.635-3.635 0-1.411-0.813-2.71-2.115-3.309-0.65-0.272-0.976-0.976-0.867-1.626 0.054-0.435 0.109-0.813 0.109-1.194 0-3.85-3.146-6.995-6.995-6.995-2.195 0-4.179 0.995-5.485 2.643 0.32 0.189 0.614 0.381 0.877 0.557 0.704 0.49 0.867 1.411 0.435 2.115-0.49 0.704-1.411 0.867-2.115 0.435-0.55-0.378-1.277-0.822-2.051-1.094-0.47-0.109-0.963-0.154-1.421-0.154-2.342 0-4.378 1.299-5.427 3.219-0.445 0.854-0.701 1.824-0.701 2.854-0.006 0.093-0.022 0.186-0.045 0.272 0.090 3.341 2.813 6.019 6.176 6.019 0.867 0 1.52 0.704 1.52 1.52s-0.704 1.52-1.52 1.52c-5.107-0.003-9.229-4.125-9.229-9.222 0-0.035 0.006-0.070 0.006-0.109 0-0.019-0.006-0.035-0.006-0.054 0-5.098 4.122-9.219 9.219-9.219 0.493 0 0.97 0.064 1.43 0.163 1.853-2.806 4.96-4.448 8.333-4.448 5.533 0 10.090 4.502 10.090 10.090v0.65c1.789 1.248 2.928 3.309 2.928 5.533zM19.091 21.152h-1.302l2.55-3.69c0.49-0.704 0.326-1.626-0.381-2.115-0.704-0.49-1.626-0.326-2.115 0.381l-4.23 6.077c-0.326 0.49-0.381 1.085-0.109 1.574s0.813 0.813 1.357 0.813h1.466l-2.765 4.339c-0.435 0.704-0.218 1.68 0.49 2.115 0.272 0.163 0.541 0.218 0.813 0.218 0.49 0 0.976-0.272 1.302-0.65l4.23-6.672c0.326-0.49 0.326-1.085 0.054-1.574-0.275-0.49-0.816-0.816-1.36-0.816z"></path>
</symbol>
<symbol id="icon-11n" viewBox="0 0 32 32">
<title>11n</title>
<path d="M32 17.411c-0.054 3.526-3.091 6.509-6.781 6.509-0.867 0-1.52-0.704-1.52-1.52 0-0.813 0.704-1.52 1.52-1.52 2.006 0 3.635-1.626 3.635-3.635 0-1.411-0.813-2.71-2.115-3.309-0.65-0.272-0.976-0.976-0.867-1.626 0.054-0.435 0.109-0.813 0.109-1.194 0-3.85-3.146-6.995-6.995-6.995-2.195 0-4.179 0.995-5.485 2.643 0.32 0.189 0.614 0.381 0.877 0.557 0.704 0.49 0.867 1.411 0.435 2.115-0.49 0.704-1.411 0.867-2.115 0.435-0.55-0.378-1.277-0.822-2.051-1.094-0.47-0.109-0.963-0.154-1.421-0.154-2.342 0-4.378 1.299-5.427 3.219-0.445 0.854-0.701 1.824-0.701 2.854-0.006 0.093-0.022 0.186-0.045 0.272 0.090 3.341 2.813 6.019 6.176 6.019 0.867 0 1.52 0.704 1.52 1.52s-0.704 1.52-1.52 1.52c-5.107-0.003-9.229-4.125-9.229-9.222 0-0.035 0.006-0.070 0.006-0.109 0-0.019-0.006-0.035-0.006-0.054 0-5.098 4.122-9.219 9.219-9.219 0.493 0 0.97 0.064 1.43 0.163 1.853-2.806 4.96-4.448 8.333-4.448 5.533 0 10.090 4.502 10.090 10.090v0.65c1.789 1.248 2.928 3.309 2.928 5.533zM19.091 21.152h-1.302l2.55-3.69c0.49-0.704 0.326-1.626-0.381-2.115-0.704-0.49-1.626-0.326-2.115 0.381l-4.23 6.077c-0.326 0.49-0.381 1.085-0.109 1.574s0.813 0.813 1.357 0.813h1.466l-2.765 4.339c-0.435 0.704-0.218 1.68 0.49 2.115 0.272 0.163 0.541 0.218 0.813 0.218 0.49 0 0.976-0.272 1.302-0.65l4.23-6.672c0.326-0.49 0.326-1.085 0.054-1.574-0.275-0.49-0.816-0.816-1.36-0.816z"></path>
</symbol>
<symbol id="icon-10n" viewBox="0 0 32 32">
<title>10n</title>
<path d="M28.864 13.677v-0.64c0-5.485-4.474-9.907-9.907-9.907-2.691 0-5.226 1.098-7.069 2.986-0.934-1.069-1.507-2.464-1.507-3.997 0-0.214 0.054-0.374 0.054-0.531 0.054-0.48-0.16-0.96-0.531-1.277-0.374-0.266-0.851-0.374-1.331-0.266-3.946 1.062-6.662 4.685-6.662 8.733 0 0.749 0.099 1.472 0.272 2.166-1.126 1.475-1.773 3.27-1.853 5.123-0.042 0.138-0.070 0.282-0.070 0.432 0 5.008 4.048 9.056 9.056 9.056 0.851 0 1.491-0.691 1.491-1.491s-0.64-1.491-1.491-1.491c-3.238 0-5.872-2.531-6.054-5.725 0.045-0.128 0.080-0.262 0.090-0.4 0-0.768 0.144-1.507 0.413-2.198 1.654 2.173 4.259 3.581 7.206 3.581 4.688 0 8.63-3.677 9.002-8.31 0.054-0.48-0.16-0.96-0.531-1.277-0.374-0.266-0.851-0.374-1.331-0.266-0.586 0.16-1.12 0.214-1.651 0.214-0.72 0-1.405-0.131-2.045-0.362 1.254-1.098 2.851-1.718 4.55-1.718 3.782 0 6.87 3.088 6.87 6.87 0 0.374-0.054 0.746-0.106 1.171-0.106 0.64 0.214 1.331 0.851 1.597 1.277 0.586 2.077 1.866 2.077 3.248 0 1.971-1.597 3.568-3.568 3.568-0.8 0-1.491 0.691-1.491 1.491s0.64 1.491 1.491 1.491c3.622 0 6.605-2.982 6.659-6.445-0.006-2.179-1.126-4.202-2.883-5.427zM16.506 11.12h0.054c-0.96 2.182-3.142 3.677-5.594 3.677-3.357 0-6.074-2.717-6.074-6.074 0-2.026 1.011-3.888 2.662-5.008 0.749 4.262 4.477 7.459 8.95 7.405zM18.691 24.33v6.179c0 0.8-0.691 1.491-1.491 1.491-0.851 0-1.491-0.691-1.491-1.491v-6.179c0-0.851 0.691-1.491 1.491-1.491 0.797 0 1.491 0.691 1.491 1.491zM14.694 24.33v2.557c0 0.851-0.691 1.491-1.491 1.491-0.851 0-1.491-0.691-1.491-1.491v-2.557c0-0.851 0.691-1.491 1.491-1.491s1.491 0.691 1.491 1.491zM22.685 24.33v2.557c0 0.851-0.691 1.491-1.491 1.491-0.851 0-1.491-0.691-1.491-1.491v-2.557c0-0.851 0.691-1.491 1.491-1.491s1.491 0.691 1.491 1.491z"></path>
</symbol>
<symbol id="icon-10d" viewBox="0 0 32 32">
<title>10d</title>
<path d="M27.978 16.854v-0.541c0-4.63-3.776-8.358-8.358-8.358-0.733 0-1.45 0.096-2.138 0.275-0.973-1.754-2.819-2.883-4.918-2.883-3.101 0-5.619 2.518-5.619 5.619 0 0.659 0.058 1.245 0.272 1.84-2.035 1.37-3.373 3.696-3.373 6.339 0 0.122 0.022 0.237 0.054 0.349 0.115 4.125 3.478 7.424 7.629 7.424 0.675 0 1.258-0.586 1.258-1.258 0-0.675-0.541-1.258-1.258-1.258-2.832 0-5.123-2.291-5.123-5.123s2.291-5.123 5.123-5.123c0.326 0 0.672 0.026 1.011 0.090 0.688 0.221 1.334 0.611 1.821 0.944 0.586 0.358 1.347 0.224 1.754-0.358 0.358-0.586 0.224-1.347-0.358-1.754-0.208-0.141-0.445-0.294-0.698-0.445 1.085-1.376 2.733-2.208 4.56-2.208 3.19 0 5.798 2.608 5.798 5.798 0 0.314-0.045 0.63-0.090 0.989-0.090 0.541 0.179 1.123 0.72 1.347 1.078 0.493 1.754 1.574 1.754 2.742 0 1.664-1.347 3.011-3.011 3.011-0.675 0-1.258 0.586-1.258 1.258 0 0.675 0.541 1.258 1.258 1.258 3.056 0 5.53-2.518 5.619-5.392-0.003-1.84-0.947-3.549-2.429-4.582zM11.482 11.507c-0.675 0-1.328 0.096-1.952 0.259-0.051-0.211-0.070-0.461-0.070-0.8 0-1.709 1.392-3.101 3.101-3.101 1.043 0 2 0.541 2.57 1.389-0.95 0.608-1.779 1.414-2.426 2.394-0.387-0.090-0.797-0.141-1.222-0.141zM4.157 12.224h-1.302c-0.72 0-1.258-0.586-1.258-1.258s0.586-1.258 1.258-1.258h1.302c0.72 0 1.258 0.586 1.258 1.258s-0.538 1.258-1.258 1.258zM4.832 5.034c-0.493-0.493-0.493-1.302 0-1.798 0.493-0.493 1.302-0.493 1.798 0l0.899 0.899c0.493 0.493 0.493 1.302 0 1.798-0.224 0.224-0.586 0.358-0.899 0.358s-0.63-0.134-0.899-0.358l-0.899-0.899zM17.597 5.933c-0.493-0.493-0.493-1.302 0-1.798l0.899-0.899c0.493-0.493 1.302-0.493 1.798 0 0.493 0.493 0.493 1.302 0 1.798l-0.902 0.899c-0.224 0.224-0.541 0.358-0.899 0.358-0.314 0-0.627-0.134-0.896-0.358zM11.302 2.563v-1.306c0-0.72 0.586-1.258 1.258-1.258s1.258 0.586 1.258 1.258v1.302c0 0.72-0.541 1.258-1.258 1.258-0.717 0.003-1.258-0.582-1.258-1.254zM19.258 25.574v5.213c0 0.675-0.586 1.213-1.258 1.213-0.72 0-1.258-0.586-1.258-1.258v-5.168c0-0.72 0.586-1.258 1.258-1.258 0.675-0.003 1.258 0.582 1.258 1.258zM22.63 25.574v2.157c0 0.675-0.586 1.258-1.258 1.258-0.72 0-1.258-0.586-1.258-1.258v-2.157c0-0.72 0.586-1.258 1.258-1.258 0.672-0.003 1.258 0.582 1.258 1.258zM15.888 25.574v2.157c0 0.675-0.586 1.258-1.258 1.258-0.72 0-1.258-0.586-1.258-1.258v-2.157c0-0.72 0.586-1.258 1.258-1.258 0.672-0.003 1.258 0.582 1.258 1.258z"></path>
</symbol>
<symbol id="icon-09n" viewBox="0 0 32 32">
<title>09n</title>
<path d="M32 17.734c-0.054 3.526-3.091 6.509-6.781 6.509-0.867 0-1.52-0.704-1.52-1.52s0.704-1.52 1.52-1.52c2.006 0 3.635-1.626 3.635-3.635 0-1.411-0.813-2.71-2.115-3.309-0.65-0.272-0.976-0.976-0.867-1.626 0.054-0.435 0.109-0.813 0.109-1.194 0-3.85-3.146-6.995-6.995-6.995-2.195 0-4.176 0.995-5.485 2.64 0.32 0.189 0.614 0.381 0.874 0.56 0.704 0.49 0.867 1.411 0.435 2.115-0.49 0.704-1.411 0.867-2.115 0.435-0.557-0.384-1.293-0.832-2.080-1.107-0.461-0.106-0.944-0.141-1.392-0.141-2.397 0-4.474 1.363-5.501 3.357-0.403 0.819-0.627 1.744-0.627 2.72-0.006 0.102-0.026 0.205-0.051 0.301 0.102 3.328 2.826 5.99 6.179 5.99 0.867 0 1.52 0.704 1.52 1.52 0 0.813-0.704 1.52-1.52 1.52-5.101-0.003-9.222-4.125-9.222-9.222 0-0.035 0-0.074 0-0.109 0-0.019 0-0.035 0-0.054 0-5.098 4.122-9.219 9.219-9.219 0.493 0 0.97 0.061 1.427 0.16 1.856-2.806 4.963-4.445 8.336-4.445 5.533 0 10.090 4.502 10.090 10.090v0.65c1.789 1.245 2.928 3.306 2.928 5.53zM12.909 21.206c-0.813 0-1.52 0.65-1.52 1.52v2.605c0 0.813 0.65 1.52 1.52 1.52 0.813 0 1.52-0.65 1.52-1.52v-2.605c-0.003-0.816-0.707-1.52-1.52-1.52zM21.043 21.206c-0.813 0-1.52 0.65-1.52 1.52v2.605c0 0.813 0.65 1.52 1.52 1.52 0.813 0 1.52-0.65 1.52-1.52v-2.605c0-0.816-0.704-1.52-1.52-1.52zM16.976 21.206c-0.813 0-1.52 0.65-1.52 1.52v6.291c0 0.813 0.65 1.52 1.52 1.52 0.813 0 1.52-0.704 1.52-1.52v-6.291c0-0.816-0.707-1.52-1.52-1.52z"></path>
</symbol>
<symbol id="icon-09d" viewBox="0 0 32 32">
<title>09d</title>
<path d="M32 17.734c-0.054 3.526-3.091 6.509-6.781 6.509-0.867 0-1.52-0.704-1.52-1.52s0.704-1.52 1.52-1.52c2.006 0 3.635-1.626 3.635-3.635 0-1.411-0.813-2.71-2.115-3.309-0.65-0.272-0.976-0.976-0.867-1.626 0.054-0.435 0.109-0.813 0.109-1.194 0-3.85-3.146-6.995-6.995-6.995-2.195 0-4.176 0.995-5.485 2.64 0.32 0.189 0.614 0.381 0.874 0.56 0.704 0.49 0.867 1.411 0.435 2.115-0.49 0.704-1.411 0.867-2.115 0.435-0.557-0.384-1.293-0.832-2.080-1.107-0.461-0.106-0.944-0.141-1.392-0.141-2.397 0-4.474 1.363-5.501 3.357-0.403 0.819-0.627 1.744-0.627 2.72-0.006 0.102-0.026 0.205-0.051 0.301 0.102 3.328 2.826 5.99 6.179 5.99 0.867 0 1.52 0.704 1.52 1.52 0 0.813-0.704 1.52-1.52 1.52-5.101-0.003-9.222-4.125-9.222-9.222 0-0.035 0-0.074 0-0.109 0-0.019 0-0.035 0-0.054 0-5.098 4.122-9.219 9.219-9.219 0.493 0 0.97 0.061 1.427 0.16 1.856-2.806 4.963-4.445 8.336-4.445 5.533 0 10.090 4.502 10.090 10.090v0.65c1.789 1.245 2.928 3.306 2.928 5.53zM12.909 21.206c-0.813 0-1.52 0.65-1.52 1.52v2.605c0 0.813 0.65 1.52 1.52 1.52 0.813 0 1.52-0.65 1.52-1.52v-2.605c-0.003-0.816-0.707-1.52-1.52-1.52zM21.043 21.206c-0.813 0-1.52 0.65-1.52 1.52v2.605c0 0.813 0.65 1.52 1.52 1.52 0.813 0 1.52-0.65 1.52-1.52v-2.605c0-0.816-0.704-1.52-1.52-1.52zM16.976 21.206c-0.813 0-1.52 0.65-1.52 1.52v6.291c0 0.813 0.65 1.52 1.52 1.52 0.813 0 1.52-0.704 1.52-1.52v-6.291c0-0.816-0.707-1.52-1.52-1.52z"></path>
</symbol>
<symbol id="icon-03n" viewBox="0 0 32 32">
<title>03n</title>
<path d="M29.072 15.296v-0.65c0-5.587-4.557-10.090-10.090-10.090-3.411 0-6.55 1.674-8.397 4.541-0.438-0.093-0.896-0.147-1.366-0.147-5.098 0-9.219 4.122-9.219 9.219 0 0.006 0 0.013 0 0.019 0 0.013 0 0.022 0 0.035 0 5.098 4.122 9.219 9.219 9.219h16.054c3.69 0 6.672-2.982 6.726-6.618 0-2.221-1.139-4.285-2.928-5.53zM25.274 24.461h-16.054c-3.334 0-6.048-2.634-6.179-5.936 0.026-0.096 0.042-0.198 0.048-0.301 0-1.696 0.682-3.229 1.782-4.346 1.117-1.104 2.65-1.782 4.346-1.782 0.403 0 0.835 0.029 1.274 0.157 0.829 0.269 1.613 0.742 2.198 1.146 0.704 0.435 1.626 0.272 2.115-0.435 0.435-0.704 0.272-1.626-0.435-2.115-0.243-0.166-0.515-0.342-0.81-0.522 1.309-1.635 3.286-2.624 5.472-2.624 3.85 0 6.995 3.146 6.995 6.995 0 0.381-0.054 0.758-0.109 1.194-0.109 0.65 0.218 1.357 0.867 1.626 1.302 0.595 2.115 1.898 2.115 3.309 0.010 2.010-1.619 3.635-3.626 3.635z"></path>
</symbol>
<symbol id="icon-03d" viewBox="0 0 32 32">
<title>03d</title>
<path d="M29.072 15.296v-0.65c0-5.587-4.557-10.090-10.090-10.090-3.411 0-6.55 1.674-8.397 4.541-0.438-0.093-0.896-0.147-1.366-0.147-5.098 0-9.219 4.122-9.219 9.219 0 0.006 0 0.013 0 0.019 0 0.013 0 0.022 0 0.035 0 5.098 4.122 9.219 9.219 9.219h16.054c3.69 0 6.672-2.982 6.726-6.618 0-2.221-1.139-4.285-2.928-5.53zM25.274 24.461h-16.054c-3.334 0-6.048-2.634-6.179-5.936 0.026-0.096 0.042-0.198 0.048-0.301 0-1.696 0.682-3.229 1.782-4.346 1.117-1.104 2.65-1.782 4.346-1.782 0.403 0 0.835 0.029 1.274 0.157 0.829 0.269 1.613 0.742 2.198 1.146 0.704 0.435 1.626 0.272 2.115-0.435 0.435-0.704 0.272-1.626-0.435-2.115-0.243-0.166-0.515-0.342-0.81-0.522 1.309-1.635 3.286-2.624 5.472-2.624 3.85 0 6.995 3.146 6.995 6.995 0 0.381-0.054 0.758-0.109 1.194-0.109 0.65 0.218 1.357 0.867 1.626 1.302 0.595 2.115 1.898 2.115 3.309 0.010 2.010-1.619 3.635-3.626 3.635z"></path>
</symbol>
<symbol id="icon-02n" viewBox="0 0 32 32">
<title>02n</title>
<path d="M29.075 16.861v-0.595c0-5.578-4.547-10.070-10.070-10.070-2.749 0-5.338 1.126-7.213 3.062-0.966-1.088-1.558-2.518-1.558-4.090 0-0.218 0.054-0.378 0.054-0.541 0.054-0.486-0.163-1.027-0.541-1.299s-0.867-0.378-1.354-0.272c-4.006 1.078-6.768 4.762-6.768 8.877 0 0.762 0.102 1.498 0.275 2.205-1.222 1.603-1.901 3.571-1.901 5.594 0 0.010 0.003 0.019 0.003 0.029s-0.003 0.016-0.003 0.026c0 5.091 4.115 9.203 9.203 9.203h16.026c3.683 0 6.659-2.979 6.768-6.605 0.003-2.221-1.133-4.278-2.922-5.523zM7.363 6.79c0.813 4.333 4.602 7.581 9.152 7.526-0.976 2.221-3.194 3.738-5.686 3.738-3.411 0-6.173-2.762-6.173-6.173 0-2.061 1.030-3.955 2.707-5.091zM25.232 25.955h-16.029c-3.338 0-6.045-2.646-6.163-5.955 0.022-0.090 0.038-0.179 0.042-0.272 0-0.781 0.147-1.533 0.419-2.234 1.68 2.211 4.33 3.642 7.325 3.642 4.765 0 8.826-3.738 9.152-8.448 0.054-0.486-0.163-0.976-0.541-1.299-0.378-0.272-0.867-0.378-1.354-0.272-0.595 0.163-1.136 0.218-1.68 0.218-0.717 0-1.402-0.128-2.042-0.352 1.277-1.126 2.906-1.76 4.64-1.76 3.843 0 6.986 3.139 6.986 6.986 0 0.378-0.054 0.758-0.109 1.19-0.109 0.65 0.218 1.354 0.867 1.626 1.299 0.595 2.112 1.894 2.112 3.302 0.003 2.006-1.622 3.629-3.626 3.629z"></path>
</symbol>
<symbol id="icon-02d" viewBox="0 0 32 32">
<title>02d</title>
<path d="M29.299 19.994v-0.643c0-5.52-4.202-9.971-9.299-9.971-0.816 0-1.616 0.115-2.384 0.33-1.098-2.032-3.12-3.331-5.418-3.331-3.45 0-6.25 3.002-6.25 6.701 0 0.787 0.064 1.485 0.301 2.195-2.262 1.635-3.75 4.41-3.75 7.562 0 0.006 0.003 0.013 0.003 0.019 0 0.013-0.003 0.022-0.003 0.035 0 5.040 3.802 9.114 8.499 9.114h14.749c3.402 0 6.202-3.002 6.25-6.541 0.003-2.198-1.046-4.237-2.698-5.469zM8.749 13.078c0-2.038 1.549-3.699 3.45-3.699 1.123 0 2.16 0.602 2.8 1.555-1.082 0.742-2.022 1.731-2.746 2.938-0.406-0.090-0.822-0.15-1.258-0.15-0.752 0-1.478 0.115-2.17 0.31-0.051-0.253-0.077-0.547-0.077-0.954zM25.802 28.944h-14.8c-3.075 0-5.571-2.557-5.69-5.821 0.019-0.077 0.035-0.157 0.038-0.237 0-3.37 2.538-6.096 5.677-6.109 0.042 0 0.083 0.003 0.122 0.006 0.106 0.003 0.214 0.010 0.32 0.026 0.010 0 0.016 0.003 0.026 0.003 1.008 0.154 2.010 0.79 2.707 1.306 0.65 0.429 1.501 0.269 1.949-0.429 0.4-0.698 0.25-1.61-0.4-2.090-0.237-0.173-0.509-0.362-0.8-0.547 1.206-1.661 3.053-2.669 5.101-2.669 3.549 0 6.451 3.11 6.451 6.915 0 0.374-0.051 0.749-0.099 1.181-0.099 0.643 0.202 1.341 0.8 1.61 1.2 0.589 1.949 1.875 1.949 3.27-0.003 1.978-1.501 3.584-3.35 3.584zM10.8 3.056v-1.555c0-0.858 0.65-1.501 1.398-1.501s1.402 0.698 1.402 1.501v1.555c0 0.858-0.65 1.501-1.398 1.501-0.803 0-1.402-0.698-1.402-1.501zM17.802 7.075c-0.55-0.589-0.55-1.555 0-2.144l0.998-1.072c0.55-0.589 1.45-0.589 2 0s0.55 1.555 0 2.144l-0.998 1.072c-0.301 0.269-0.65 0.429-0.998 0.429-0.352 0-0.704-0.16-1.002-0.429zM3.6 6.003c-0.55-0.589-0.55-1.555 0-2.144s1.45-0.589 2 0l0.998 1.072c0.55 0.589 0.55 1.555 0 2.144-0.301 0.269-0.65 0.429-0.998 0.429s-0.701-0.16-0.998-0.429l-1.002-1.072zM2.851 14.579h-1.453c-0.8 0-1.398-0.698-1.398-1.501s0.65-1.501 1.398-1.501h1.45c0.8 0 1.398 0.698 1.398 1.501 0.003 0.803-0.646 1.501-1.395 1.501z"></path>
</symbol>
<symbol id="icon-04d" viewBox="0 0 32 32">
<title>04d</title>
<path d="M7.885 28.8h13.728c3.155 0 5.706-2.598 5.75-5.763 0-1.936-0.973-3.731-2.506-4.819v-0.566c0-4.864-3.894-8.784-8.627-8.784-2.922 0-5.613 1.466-7.187 3.968-0.416-0.048-0.787-0.096-1.158-0.096-4.362 0.003-7.885 3.59-7.885 8.032s3.523 8.029 7.885 8.029zM7.885 15.434c0.464 0 0.973 0.048 1.485 0.285 0.093 0.048 0.186 0.048 0.323 0.048 0.509 0 0.973-0.285 1.206-0.755 1.021-2.077 3.062-3.402 5.379-3.402 3.293 0 5.984 2.739 5.984 6.093 0 0.33-0.045 0.662-0.093 1.040-0.093 0.566 0.186 1.181 0.742 1.418 1.114 0.518 1.808 1.654 1.808 2.88 0 1.747-1.392 3.165-3.107 3.165h-13.728c-2.922 0-5.286-2.41-5.286-5.386s2.365-5.386 5.286-5.386zM26.342 19.683c0.65 0.944 1.021 2.125 1.021 3.306 0-1.181-0.371-2.314-1.021-3.306zM29.494 12.554v-0.566c0-4.864-3.894-8.784-8.627-8.784-2.922 0-5.613 1.466-7.187 3.968-0.416-0.048-0.787-0.096-1.158-0.096-3.386 0-6.214 2.125-7.373 5.149 0.835-0.285 1.763-0.426 2.736-0.426 0.23 0 0.464 0 0.694 0.048 1.763-2.458 4.592-3.92 7.651-3.92 5.286 0 9.555 4.346 9.555 9.731v0.096c1.485 1.229 2.413 3.069 2.506 5.008 2.134-0.851 3.709-2.928 3.709-5.386 0-1.942-0.973-3.738-2.506-4.822zM6.307 12.883c-0.509 0.096-1.021 0.285-1.485 0.474 0.464-0.192 0.976-0.333 1.485-0.474z"></path>
</symbol>
<symbol id="icon-04n" viewBox="0 0 32 32">
<title>04n</title>
<path d="M7.885 28.8h13.728c3.155 0 5.706-2.598 5.75-5.763 0-1.936-0.973-3.731-2.506-4.819v-0.566c0-4.864-3.894-8.784-8.627-8.784-2.922 0-5.613 1.466-7.187 3.968-0.416-0.048-0.787-0.096-1.158-0.096-4.362 0.003-7.885 3.59-7.885 8.032s3.523 8.029 7.885 8.029zM7.885 15.434c0.464 0 0.973 0.048 1.485 0.285 0.093 0.048 0.186 0.048 0.323 0.048 0.509 0 0.973-0.285 1.206-0.755 1.021-2.077 3.062-3.402 5.379-3.402 3.293 0 5.984 2.739 5.984 6.093 0 0.33-0.045 0.662-0.093 1.040-0.093 0.566 0.186 1.181 0.742 1.418 1.114 0.518 1.808 1.654 1.808 2.88 0 1.747-1.392 3.165-3.107 3.165h-13.728c-2.922 0-5.286-2.41-5.286-5.386s2.365-5.386 5.286-5.386zM26.342 19.683c0.65 0.944 1.021 2.125 1.021 3.306 0-1.181-0.371-2.314-1.021-3.306zM29.494 12.554v-0.566c0-4.864-3.894-8.784-8.627-8.784-2.922 0-5.613 1.466-7.187 3.968-0.416-0.048-0.787-0.096-1.158-0.096-3.386 0-6.214 2.125-7.373 5.149 0.835-0.285 1.763-0.426 2.736-0.426 0.23 0 0.464 0 0.694 0.048 1.763-2.458 4.592-3.92 7.651-3.92 5.286 0 9.555 4.346 9.555 9.731v0.096c1.485 1.229 2.413 3.069 2.506 5.008 2.134-0.851 3.709-2.928 3.709-5.386 0-1.942-0.973-3.738-2.506-4.822zM6.307 12.883c-0.509 0.096-1.021 0.285-1.485 0.474 0.464-0.192 0.976-0.333 1.485-0.474z"></path>
</symbol>
<symbol id="icon-01n" viewBox="0 0 32 32">
<title>01n</title>
<path d="M16.032 32c-8.845 0-16.032-7.283-16.032-16.25 0-7.283 4.816-13.686 11.766-15.69 0.63-0.16 1.344 0 1.818 0.4 0.554 0.4 0.79 1.12 0.71 1.76 0 0.32-0.080 0.64-0.080 1.040 0 6.723 5.37 12.166 12.003 12.166 1.027 0 2.131-0.16 3.238-0.48 0.63-0.16 1.344 0 1.818 0.4 0.554 0.4 0.79 1.12 0.71 1.76-0.63 8.33-7.661 14.893-15.952 14.893zM10.266 5.104c-3.792 2.080-6.24 6.163-6.24 10.646 0 6.643 5.37 12.086 12.003 12.086 5.213 0 9.792-3.523 11.373-8.406-8.685 0.723-16.186-5.84-17.136-14.326z"></path>
</symbol>
<symbol id="icon-01d" viewBox="0 0 32 32">
<title>01d</title>
<path d="M16 24.822c-4.89 0-8.822-3.987-8.822-8.822 0-4.89 3.987-8.822 8.822-8.822 4.89 0 8.822 3.987 8.822 8.822 0 4.89-3.933 8.822-8.822 8.822zM16 10.154c-3.242 0-5.846 2.605-5.846 5.846s2.605 5.846 5.846 5.846 5.846-2.605 5.846-5.846-2.605-5.846-5.846-5.846zM16 5.155c-0.851 0-1.488-0.691-1.488-1.488v-2.179c0-0.851 0.691-1.488 1.488-1.488 0.851 0 1.488 0.691 1.488 1.488v2.179c0 0.851-0.637 1.488-1.488 1.488zM7.283 8.771c-0.371 0-0.746-0.16-1.062-0.426l-1.542-1.542c-0.586-0.586-0.586-1.542 0-2.125s1.542-0.586 2.125 0l1.542 1.542c0.586 0.586 0.586 1.542 0 2.125-0.32 0.266-0.691 0.426-1.062 0.426zM3.667 17.488h-2.179c-0.851 0-1.488-0.691-1.488-1.488 0-0.851 0.691-1.488 1.488-1.488h2.179c0.851 0 1.488 0.691 1.488 1.488 0 0.851-0.637 1.488-1.488 1.488zM5.741 27.747c-0.371 0-0.746-0.16-1.062-0.426-0.586-0.586-0.586-1.542 0-2.125l1.542-1.542c0.586-0.586 1.542-0.586 2.125 0s0.586 1.542 0 2.125l-1.542 1.542c-0.317 0.266-0.691 0.426-1.062 0.426zM16 32c-0.851 0-1.488-0.691-1.488-1.488v-2.179c0-0.851 0.691-1.488 1.488-1.488 0.851 0 1.488 0.691 1.488 1.488v2.179c0 0.851-0.637 1.488-1.488 1.488zM26.259 27.747c-0.371 0-0.746-0.16-1.062-0.426l-1.542-1.542c-0.586-0.586-0.586-1.542 0-2.125s1.542-0.586 2.125 0l1.542 1.542c0.586 0.586 0.586 1.542 0 2.125-0.317 0.266-0.691 0.426-1.062 0.426zM30.512 17.488h-2.179c-0.851 0-1.488-0.691-1.488-1.488 0-0.851 0.691-1.488 1.488-1.488h2.179c0.851 0 1.488 0.691 1.488 1.488 0 0.851-0.637 1.488-1.488 1.488zM24.717 8.771c-0.371 0-0.746-0.16-1.062-0.426-0.586-0.586-0.586-1.542 0-2.125l1.542-1.542c0.586-0.586 1.542-0.586 2.125 0s0.586 1.542 0 2.125l-1.542 1.542c-0.317 0.266-0.688 0.426-1.062 0.426z"></path>
</symbol>
<symbol id="icon-pin" viewBox="0 0 32 32">
<title>pin</title>
<path d="M16 0c-5.523 0-10 4.477-10 10 0 10 10 22 10 22s10-12 10-22c-0-5.523-4.477-10-10-10zM16 16c-3.314 0-6-2.686-6-6s2.686-6 6-6c3.314 0 6 2.686 6 6s-2.686 6-6 6z"></path>
</symbol>
<symbol id="icon-cross" viewBox="0 0 32 32">
<title>cross</title>
<path d="M16 0c-8.822 0-16 7.177-16 16s7.178 16 16 16 16-7.177 16-16-7.178-16-16-16zM16 30.769c-8.143 0-14.769-6.626-14.769-14.769s6.626-14.769 14.769-14.769 14.769 6.626 14.769 14.769-6.626 14.769-14.769 14.769z"></path>
<path d="M21.974 10.026c-0.241-0.241-0.63-0.241-0.87 0l-5.103 5.103-5.103-5.103c-0.241-0.241-0.63-0.241-0.87 0s-0.241 0.63 0 0.87l5.103 5.103-5.103 5.103c-0.241 0.241-0.241 0.63 0 0.87 0.12 0.12 0.278 0.18 0.435 0.18s0.315-0.060 0.435-0.18l5.103-5.103 5.103 5.103c0.12 0.12 0.278 0.18 0.435 0.18s0.315-0.060 0.435-0.18c0.241-0.241 0.241-0.63 0-0.87l-5.103-5.103 5.103-5.103c0.241-0.241 0.241-0.63 0-0.87z"></path>
</symbol>
<symbol id="icon-close" viewBox="0 0 32 32">
<title>close</title>
<path d="M32 2.782l-2.782-2.782-13.218 13.218-13.218-13.218-2.782 2.782 13.218 13.218-13.218 13.218 2.782 2.782 13.218-13.218 13.218 13.218 2.782-2.782-13.218-13.218z"></path>
</symbol>
</defs>
</svg>
